<?xml version="1.0" standalone="no"?>
<!DOCTYPE svg PUBLIC "-//W3C//DTD SVG 20010904//EN"
 "http://www.w3.org/TR/2001/REC-SVG-20010904/DTD/svg10.dtd">
<svg version="1.0" xmlns="http://www.w3.org/2000/svg"
 width="355.000000pt" height="355.000000pt" viewBox="0 0 355.000000 355.000000"
 preserveAspectRatio="xMidYMid meet">
<metadata>
Created by potrace 1.14, written by Peter Selinger 2001-2017
</metadata>
<g transform="translate(0.000000,355.000000) scale(0.100000,-0.100000)"
fill="#000000" stroke="none">
<path d="M22 3189 c-1 -26 -2 -51 -3 -55 -1 -5 0 -13 1 -19 1 -5 1 -30 1 -55
-2 -111 -2 -176 -1 -185 3 -16 2 -89 0 -100 -1 -5 -1 -14 0 -20 1 -5 1 -29 0
-51 -1 -41 0 -42 34 -46 20 -2 41 1 46 6 6 6 10 6 10 0 0 -12 133 -12 142 1 5
6 8 5 8 -4 0 -11 3 -11 15 -1 8 7 15 8 15 3 0 -14 35 -9 54 6 14 12 16 12 11
0 -4 -11 10 -14 73 -13 44 1 84 4 91 8 6 4 11 3 11 -2 0 -10 30 -9 48 2 6 4
12 3 12 -1 0 -10 72 -9 88 1 7 4 12 3 12 -2 0 -10 30 -9 48 2 6 4 12 4 12 -1
0 -12 134 -10 142 2 5 6 8 5 8 -4 0 -11 3 -11 15 -1 8 7 15 8 15 3 0 -14 35
-9 54 6 14 12 16 12 11 0 -4 -11 10 -14 73 -13 44 1 84 4 91 8 6 4 11 3 11 -2
0 -10 30 -9 48 2 6 4 12 4 12 -1 0 -12 134 -10 142 2 5 6 8 5 8 -4 0 -11 3
-11 15 -1 8 7 15 8 15 3 0 -14 35 -9 54 6 14 12 16 12 11 0 -4 -11 15 -14 102
-14 61 0 111 4 115 10 5 6 8 5 8 -4 0 -11 3 -11 15 -1 8 7 15 8 15 3 0 -14 35
-9 54 6 14 12 16 12 11 0 -4 -11 12 -14 84 -13 49 1 94 5 100 8 6 4 11 4 11
-1 0 -10 52 -9 68 1 7 4 12 4 12 -1 0 -10 52 -9 68 1 7 4 12 4 12 -1 0 -10 52
-9 68 1 7 4 12 3 12 -2 0 -10 30 -9 48 2 6 4 12 3 12 -2 0 -10 30 -9 48 2 6 4
12 4 12 -1 0 -12 134 -10 142 2 5 6 8 5 8 -4 0 -11 3 -11 15 -1 8 7 15 8 15 3
0 -14 35 -9 54 6 14 12 16 12 11 -1 -5 -12 2 -14 37 -11 24 3 45 6 47 8 7 8 6
187 -2 192 -4 3 -3 11 4 19 8 10 8 14 1 14 -6 0 -9 7 -5 16 11 30 8 69 -7 82
-8 8 -10 11 -3 8 15 -8 27 10 13 19 -8 5 -7 11 1 21 9 11 8 14 -2 14 -10 0
-10 3 -1 12 7 7 8 17 1 30 -5 10 -6 18 -1 18 4 0 7 15 6 33 -3 48 -3 49 -16
41 -7 -4 -5 2 5 13 9 11 14 23 11 26 -4 4 -13 -1 -21 -11 -8 -9 -12 -12 -9 -6
3 7 -1 15 -10 18 -10 4 -13 2 -8 -6 5 -7 3 -8 -7 -3 -18 12 -119 12 -112 1 4
-5 0 -6 -8 -1 -18 12 -119 12 -112 1 4 -5 0 -6 -8 -1 -18 12 -119 12 -112 1 4
-5 0 -6 -8 -1 -18 12 -439 13 -432 1 4 -5 0 -6 -8 -1 -18 12 -119 12 -112 1 4
-5 0 -6 -7 -1 -19 12 -200 12 -193 1 4 -5 0 -6 -8 -1 -18 12 -119 12 -112 1 4
-5 0 -6 -7 -1 -19 12 -440 12 -433 1 4 -5 0 -6 -8 -1 -18 12 -119 12 -112 1 4
-5 0 -6 -8 -1 -18 12 -119 12 -112 1 4 -5 0 -6 -8 -1 -18 12 -119 12 -112 1 4
-5 0 -6 -8 -1 -18 12 -119 12 -112 1 4 -5 0 -6 -8 -1 -18 12 -119 12 -112 1 4
-5 0 -6 -8 -1 -17 11 -279 14 -301 3 -10 -5 -18 -3 -21 5 -2 6 -5 -9 -5 -34z"/>
<path d="M83 2295 c0 -73 3 -102 11 -98 8 5 8 3 0 -8 -13 -17 -13 -78 0 -98 6
-9 5 -12 -1 -8 -12 8 -11 -192 1 -212 6 -9 5 -12 -1 -8 -6 4 -10 -25 -10 -73
0 -56 3 -77 11 -73 8 5 8 3 0 -8 -13 -17 -13 -78 0 -98 6 -9 5 -12 -1 -8 -12
8 -11 -192 1 -212 6 -9 5 -12 -1 -8 -6 4 -10 -25 -10 -73 0 -56 3 -77 11 -73
8 5 8 3 0 -8 -13 -17 -13 -78 0 -98 6 -9 5 -12 -1 -8 -12 8 -11 -192 1 -212 6
-9 5 -12 -1 -8 -6 4 -10 -25 -10 -73 0 -56 3 -77 11 -73 8 5 8 3 0 -8 -13 -17
-13 -78 0 -98 6 -9 5 -12 -1 -8 -12 8 -11 -192 1 -212 6 -10 5 -12 -3 -7 -14
9 -11 -30 3 -53 6 -10 5 -12 -2 -7 -7 4 -10 2 -7 -6 6 -14 55 -18 55 -5 0 5 5
5 12 1 16 -10 439 -11 445 -1 2 4 7 5 11 3 4 -2 8 41 10 96 2 79 0 98 -10 92
-10 -5 -11 -4 0 7 17 18 17 123 -1 113 -9 -6 -9 -4 -1 7 16 21 18 242 1 233
-9 -6 -9 -5 0 7 18 22 19 724 1 713 -10 -6 -10 -4 -2 7 16 21 18 242 1 233 -9
-6 -9 -4 -1 7 16 21 18 242 1 233 -9 -6 -9 -4 -1 7 6 8 12 71 13 152 l2 138
-269 -1 -269 -1 0 -104z m524 89 c-3 -3 -12 -4 -19 -1 -8 3 -5 6 6 6 11 1 17
-2 13 -5z"/>
<path d="M2114 2352 c0 -9 6 -20 11 -24 6 -5 5 -8 -4 -8 -11 0 -11 -3 0 -17 8
-9 9 -14 2 -10 -14 8 -13 -50 1 -72 6 -9 5 -12 -2 -7 -13 8 -11 -52 2 -73 6
-9 5 -12 -1 -8 -6 4 -10 -4 -10 -18 0 -14 3 -22 8 -19 5 3 9 0 9 -5 0 -6 -3
-11 -8 -11 -4 0 -8 -52 -8 -115 -1 -63 3 -112 8 -109 4 3 8 0 8 -5 0 -6 -4
-11 -9 -11 -11 0 -8 -80 3 -99 6 -9 5 -12 -2 -7 -13 8 -11 -52 2 -73 6 -9 5
-12 -2 -7 -13 8 -11 -52 2 -73 6 -9 5 -12 -2 -7 -13 8 -11 -52 2 -73 6 -9 5
-12 -1 -8 -6 4 -10 -4 -10 -18 0 -14 3 -22 8 -19 5 3 9 0 9 -5 0 -6 -3 -11 -8
-11 -4 0 -8 -52 -8 -115 -1 -63 3 -112 8 -109 4 3 8 0 8 -5 0 -6 -4 -11 -9
-11 -11 0 -8 -80 3 -99 6 -9 5 -12 -2 -7 -13 8 -11 -52 2 -73 6 -9 5 -12 0 -8
-13 7 -12 -373 0 -392 6 -9 5 -12 -2 -7 -13 8 -11 -52 2 -73 6 -9 5 -12 -1 -8
-6 4 -10 -4 -10 -18 0 -14 3 -22 8 -19 5 3 9 0 9 -5 0 -6 -4 -11 -10 -11 -5 0
-8 -10 -6 -22 2 -13 10 -22 17 -20 9 1 8 -3 -3 -11 -15 -12 20 -14 235 -15
138 0 260 2 269 4 16 5 18 32 17 359 0 269 -2 355 -12 358 -9 4 -9 6 1 6 8 1
12 23 12 75 0 50 -4 76 -12 79 -10 4 -10 6 0 6 8 1 12 23 12 75 0 50 -4 76
-12 79 -10 4 -10 6 0 6 8 1 12 23 12 75 0 50 -4 76 -12 79 -10 4 -10 6 0 6 8
1 12 23 12 75 0 50 -4 76 -12 79 -10 4 -10 6 0 6 8 1 12 23 12 75 0 50 -4 76
-12 79 -10 4 -10 6 0 6 8 1 12 23 12 75 0 50 -4 76 -12 79 -10 4 -10 6 0 6 8
1 12 23 12 75 0 50 -4 76 -12 79 -10 4 -10 6 0 6 8 1 12 19 12 54 l0 54 -269
1 c-247 1 -268 0 -267 -16z"/>
<path d="M2884 1122 c-11 -26 -12 -62 -1 -62 5 0 4 -7 -3 -15 -10 -12 -10 -15
1 -15 9 0 10 -3 4 -8 -11 -8 -14 -101 -3 -118 4 -6 4 -14 1 -18 -11 -10 -11
-56 -1 -62 4 -3 5 -11 1 -17 -11 -17 -11 -57 -1 -63 4 -3 5 -11 1 -17 -12 -19
-11 -87 1 -87 6 0 5 -4 -3 -9 -9 -6 -10 -10 -2 -16 9 -5 9 -10 0 -21 -9 -11
-8 -14 2 -14 12 0 12 -2 0 -9 -9 -6 -10 -11 -2 -15 6 -4 8 -13 4 -19 -11 -18
-10 -67 2 -67 6 0 7 -3 0 -8 -19 -13 -13 -42 9 -46 11 -3 154 -4 316 -3 l295
2 0 360 0 359 -55 1 c-30 1 -61 -3 -67 -8 -9 -6 -13 -6 -13 1 0 5 -16 10 -35
10 -20 0 -35 -5 -35 -11 0 -9 -2 -9 -8 -1 -4 7 -20 12 -37 12 -16 0 -33 -5
-37 -12 -5 -7 -8 -7 -8 0 0 12 -49 13 -67 1 -7 -5 -13 -4 -13 0 0 11 -90 11
-107 0 -8 -5 -13 -3 -13 4 0 8 -5 7 -17 -2 -9 -8 -14 -9 -10 -3 4 7 -2 12 -18
12 -14 0 -22 -5 -18 -11 3 -6 1 -7 -5 -3 -25 15 -51 14 -58 -2z m616 -12 c0
-5 -2 -10 -4 -10 -3 0 -8 5 -11 10 -3 6 -1 10 4 10 6 0 11 -4 11 -10z m-580
-676 c0 -8 -19 -13 -24 -6 -3 5 1 9 9 9 8 0 15 -2 15 -3z"/>
<path d="M854 1066 c-12 -14 -12 -46 0 -65 6 -10 5 -12 -2 -7 -7 4 -12 1 -12
-9 0 -10 5 -13 13 -9 7 5 7 1 -2 -10 -13 -15 -13 -19 0 -27 8 -5 9 -9 4 -9 -6
0 -11 -9 -12 -20 -1 -13 2 -18 9 -14 7 5 8 2 2 -7 -12 -19 -13 -59 -3 -87 5
-13 5 -21 1 -18 -5 3 -9 -17 -8 -44 0 -32 3 -47 10 -43 6 4 5 0 -1 -8 -12 -15
-11 -48 3 -71 4 -7 3 -8 -5 -4 -8 6 -10 -1 -6 -25 3 -18 9 -37 12 -42 3 -6 2
-7 -4 -4 -6 4 -10 -6 -11 -24 0 -20 3 -27 11 -22 7 4 6 -1 -2 -11 -13 -15 -13
-19 0 -27 8 -5 9 -9 4 -9 -6 0 -11 -9 -12 -20 -1 -13 2 -18 9 -14 7 5 8 2 2
-7 -4 -8 -9 -25 -10 -38 -1 -23 -1 -23 14 -5 12 16 14 16 9 2 -3 -10 -2 -20 3
-23 6 -4 10 -1 10 6 0 9 3 9 14 0 11 -9 15 -9 18 1 4 10 8 10 20 1 11 -10 17
-10 26 -1 7 7 12 8 12 2 0 -5 15 -9 34 -9 19 0 32 3 29 8 -2 4 0 7 6 7 5 0 13
-5 16 -10 5 -8 11 -7 21 1 8 6 14 8 14 3 0 -5 15 -9 34 -9 19 0 32 3 29 8 -2
4 0 7 6 7 5 0 13 -5 16 -10 5 -8 11 -7 21 1 8 6 14 8 14 3 0 -5 15 -9 34 -9
19 0 32 3 29 8 -2 4 0 7 6 7 5 0 13 -5 16 -10 5 -8 11 -7 21 1 8 6 14 7 14 2
0 -10 60 -10 78 1 7 4 12 3 12 -1 0 -5 9 -9 20 -9 18 0 18 1 2 20 -17 19 -16
19 9 3 l25 -17 0 365 c0 200 -3 360 -6 356 -7 -11 -40 -10 -40 1 0 5 -9 4 -19
-2 -11 -5 -22 -6 -25 -2 -6 10 -36 9 -53 -1 -6 -4 -14 -3 -18 2 -4 7 -15 7
-30 1 -14 -5 -25 -6 -25 -1 0 9 -43 7 -59 -4 -6 -3 -11 -2 -11 2 0 10 -143 9
-159 -1 -6 -4 -11 -3 -11 2 0 10 -42 8 -59 -3 -6 -3 -11 -1 -11 5 0 7 -6 8
-19 1 -10 -6 -21 -7 -25 -4 -11 11 -42 10 -52 -1z m613 -191 c0 -8 -4 -12 -9
-9 -5 3 -6 10 -3 15 9 13 12 11 12 -6z m0 -120 c0 -8 -4 -12 -9 -9 -5 3 -6 10
-3 15 9 13 12 11 12 -6z m0 -200 c0 -8 -4 -12 -9 -9 -5 3 -6 10 -3 15 9 13 12
11 12 -6z m0 -120 c0 -8 -4 -12 -9 -9 -5 3 -6 10 -3 15 9 13 12 11 12 -6z"/>
</g>
</svg>
